# xmcd CD database file
#
# Track frame offsets:
#	150
#	25250
#	79325
#	155225
#	181250
#	249200
#
# Disc length: 3746 seconds
#
# Revision: 4
# Processed by: cddbd v1.5.2PL0 Copyright (c) Steve Scherf et al.
# Submitted via: CDex 1.70beta2
#
DISCID=430ea006
DTITLE=David Hykes - Harmonic Meetings
DYEAR=1986
DGENRE=New Age
TTITLE0=Kyrie Opening
TTITLE1=Brotherhood
TTITLE2=Lines to a Great Lord
TTITLE3=Harmonic Relation
TTITLE4=Foregather in the Name
TTITLE5=Halleluyah
EXTD=YEAR: 1986
EXTT0=
EXTT1=
EXTT2=
EXTT3=
EXTT4=
EXTT5=
PLAYORDER=
